<svg width="18" height="17" viewBox="0 0 18 17" fill="none" xmlns="http://www.w3.org/2000/svg">
<path d="M8.99972 5.00766V8.49972L11.6188 11.1188M16.8569 8.49972C16.8569 9.53154 16.6536 10.5532 16.2588 11.5065C15.8639 12.4598 15.2852 13.326 14.5556 14.0556C13.826 14.7852 12.9598 15.3639 12.0065 15.7588C11.0532 16.1536 10.0315 16.3569 8.99972 16.3569C7.96791 16.3569 6.9462 16.1536 5.99292 15.7588C5.03965 15.3639 4.17349 14.7852 3.44388 14.0556C2.71428 13.326 2.13553 12.4598 1.74067 11.5065C1.34581 10.5532 1.14258 9.53154 1.14258 8.49972C1.14258 6.41588 1.97038 4.41738 3.44388 2.94388C4.91738 1.47038 6.91588 0.642578 8.99972 0.642578C11.0836 0.642578 13.0821 1.47038 14.5556 2.94388C16.0291 4.41738 16.8569 6.41588 16.8569 8.49972Z" stroke="black" stroke-width="1.2" stroke-linecap="round" stroke-linejoin="round"/>
</svg>
