<svg width="28" height="28" viewBox="0 0 28 28" fill="none" xmlns="http://www.w3.org/2000/svg">
<circle cx="14" cy="8" r="6" fill="black" stroke="black" stroke-width="1.2"/>
<path d="M23.5563 16.8496C22.2928 14.8031 20.1582 14.86 19.2489 15.1442C18 15.5 17.3011 15.7588 17 16C14.6 17.6 12 16.6667 11 16C10.2 15.2 9.08266 15.0961 8.62399 15.1442C3.68484 14.9493 2.83293 20.1791 3.02437 22.8184C3.2541 25.3521 5.41737 25.9855 6.47029 25.9855H21.1154C23.8722 26.1804 24.7528 24.3613 24.8485 23.4274C25.4228 20.7963 24.2263 17.9459 23.5563 16.8496Z" fill="black" stroke="black" stroke-width="1.2" stroke-linecap="round"/>
<path d="M11 18C12.1111 18.8588 14.5556 19.7373 17 18" stroke="#7ADA90" stroke-width="1.2" stroke-linecap="round"/>
</svg>
