<svg width="28" height="28" viewBox="0 0 28 28" fill="none" xmlns="http://www.w3.org/2000/svg">
<path d="M2 3.12195C2 2.50231 2.50231 2 3.12195 2H24.878C25.4977 2 26 2.50231 26 3.12195V24.878C26 25.4977 25.4977 26 24.878 26H3.12195C2.50231 26 2 25.4977 2 24.878V3.12195Z" fill="black" stroke="black" stroke-width="1.2" stroke-linejoin="round"/>
<path d="M5.76655 3.1709C4.966 5.87822 5.94666 12.7007 10.2696 15.0831C14.7727 17.7904 18.7355 19.6314 18.9756 24.8294" stroke="#7ADA90" stroke-width="1.2" stroke-linecap="round" stroke-linejoin="round" stroke-dasharray="2 2"/>
<path d="M19.3957 15.9962C18.9992 16.362 18.3921 16.362 17.9955 15.9962C17.5057 15.5444 17.0427 15.0656 16.6087 14.5621C15.6546 13.4544 14.5217 11.8049 14.5217 10.233C14.5213 9.43028 14.7659 8.64544 15.2246 7.97785C15.6832 7.31025 16.3353 6.78992 17.0983 6.4827C17.8612 6.17548 18.7008 6.09518 19.5108 6.25196C20.3208 6.40874 21.0647 6.79556 21.6484 7.36346C22.037 7.73953 22.345 8.1868 22.5546 8.67936C22.7642 9.17192 22.8713 9.7 22.8695 10.233C22.8695 11.8049 21.7366 13.4544 20.7826 14.5621C20.3486 15.0656 19.8855 15.5444 19.3957 15.9962ZM18.6956 8.49425C18.2212 8.49425 17.7662 8.67744 17.4307 9.00353C17.0953 9.32962 16.9068 9.77189 16.9068 10.233C16.9068 10.6942 17.0953 11.1365 17.4307 11.4626C17.7662 11.7886 18.2212 11.9718 18.6956 11.9718C19.1701 11.9718 19.625 11.7886 19.9605 11.4626C20.296 11.1365 20.4844 10.6942 20.4844 10.233C20.4844 9.77189 20.296 9.32962 19.9605 9.00353C19.625 8.67744 19.1701 8.49425 18.6956 8.49425Z" stroke="#7ADA90" stroke-width="1.2"/>
</svg>
