<svg width="20" height="20" viewBox="0 0 20 20" fill="none" xmlns="http://www.w3.org/2000/svg">
<path d="M2 2V18" stroke="#A5A5A5" stroke-width="1.36" stroke-linecap="round"/>
<path d="M18.4808 10.4808C18.7464 10.2153 18.7464 9.78472 18.4808 9.51916L14.1533 5.19164C13.8878 4.92608 13.4572 4.92608 13.1916 5.19164C12.9261 5.45719 12.9261 5.88775 13.1916 6.15331L17.0383 10L13.1916 13.8467C12.9261 14.1122 12.9261 14.5428 13.1916 14.8084C13.4572 15.0739 13.8878 15.0739 14.1533 14.8084L18.4808 10.4808ZM6.99983 9.31999C6.62427 9.31999 6.31982 9.62444 6.31982 10C6.31982 10.3756 6.62427 10.68 6.99983 10.68V9.31999ZM18 9.31999H6.99983V10.68H18V9.31999Z" fill="#A5A5A5"/>
</svg>
