<svg width="18" height="19" viewBox="0 0 18 19" fill="none" xmlns="http://www.w3.org/2000/svg">
<path d="M8.99999 17C7.91736 16.1024 6.91387 15.1183 5.99999 14.0581C4.62857 12.4659 3 10.0947 3 7.83512C2.99941 6.68115 3.35101 5.55294 4.01031 4.59327C4.66961 3.63361 5.60697 2.88563 6.70376 2.444C7.80056 2.00237 9.00748 1.88694 10.1718 2.11231C11.3361 2.33769 12.4055 2.89374 13.2445 3.71009C13.8032 4.2507 14.246 4.89364 14.5473 5.6017C14.8486 6.30976 15.0025 7.06888 15 7.83512C15 10.0947 13.3714 12.4659 12 14.0581C11.0861 15.1183 10.0826 16.1024 8.99999 17ZM8.99999 5.33561C8.318 5.33561 7.66395 5.59895 7.18172 6.0677C6.69948 6.53645 6.42856 7.17221 6.42856 7.83512C6.42856 8.49803 6.69948 9.13379 7.18172 9.60254C7.66395 10.0713 8.318 10.3346 8.99999 10.3346C9.68197 10.3346 10.336 10.0713 10.8183 9.60254C11.3005 9.13379 11.5714 8.49803 11.5714 7.83512C11.5714 7.17221 11.3005 6.53645 10.8183 6.0677C10.336 5.59895 9.68197 5.33561 8.99999 5.33561Z" fill="#555555" stroke="#555555"/>
</svg>
