<svg width="78" height="26" viewBox="0 0 78 26" fill="none" xmlns="http://www.w3.org/2000/svg">
<g clip-path="url(#clip0_1187_4323)">
<path d="M0.294281 5.93668L0.0201696 4.67543C-0.0915055 4.14747 0.324738 3.65862 0.872961 3.65862H6.68007C7.10646 3.65862 7.47195 3.96171 7.54301 4.37234L8.69022 11.1967C8.77144 11.7052 8.36535 12.1745 7.82728 12.1745H5.64454C5.08616 12.1745 4.66992 12.6731 4.79174 13.201L4.98464 14.0321C5.07601 14.4134 5.43134 14.6872 5.83743 14.6872H8.51763C8.92372 14.6872 9.27905 14.9609 9.37042 15.3422L9.66484 16.6035C9.78667 17.1314 9.37042 17.6301 8.81205 17.6301H2.89327C2.46687 17.6301 2.10139 17.327 2.03032 16.9163L0.913571 10.2093C0.832352 9.70085 1.23844 9.23155 1.77651 9.23155H4.09124C4.64961 9.23155 5.0557 8.7427 4.95418 8.21474L4.75113 7.28591C4.66992 6.89483 4.30443 6.61129 3.88819 6.61129H1.14707C0.73083 6.61129 0.3755 6.32776 0.294281 5.93668ZM14.7816 17.8061H13.0252C12.5785 17.8061 12.2131 17.4834 12.1521 17.063L11.5532 12.2722C11.5024 11.8811 11.1775 11.5781 10.7714 11.5292L10.5176 11.4998C10.1217 11.4607 9.79682 11.1674 9.74606 10.7861L9.52271 9.31955C9.45164 8.81114 9.85773 8.36139 10.3857 8.35162C10.8933 8.35162 11.2994 7.92142 11.2587 7.43257L10.9643 4.22569C10.9237 3.73683 11.3197 3.30664 11.8374 3.30664H13.7461C14.2029 3.30664 14.5887 3.64884 14.6192 4.08881L15.6344 16.887C15.675 17.3759 15.2689 17.7963 14.7613 17.7963L14.7816 17.8061Z" fill="#2C9A49"/>
<path d="M0.294281 5.93668L0.0201696 4.67543C-0.0915055 4.14747 0.324738 3.65862 0.872961 3.65862H6.68007C7.10646 3.65862 7.47195 3.96171 7.54301 4.37234L8.69022 11.1967C8.77144 11.7052 8.36535 12.1745 7.82728 12.1745H5.64454C5.08616 12.1745 4.66992 12.6731 4.79174 13.201L4.98464 14.0321C5.07601 14.4134 5.43134 14.6872 5.83743 14.6872H8.51763C8.92372 14.6872 9.27905 14.9609 9.37042 15.3422L9.66484 16.6035C9.78667 17.1314 9.37042 17.6301 8.81205 17.6301H2.89327C2.46687 17.6301 2.10139 17.327 2.03032 16.9163L0.913571 10.2093C0.832352 9.70085 1.23844 9.23155 1.77651 9.23155H4.09124C4.64961 9.23155 5.0557 8.7427 4.95418 8.21474L4.75113 7.28591C4.66992 6.89483 4.30443 6.61129 3.88819 6.61129H1.14707C0.73083 6.61129 0.3755 6.32776 0.294281 5.93668ZM14.7816 17.8061H13.0252C12.5785 17.8061 12.2131 17.4834 12.1521 17.063L11.5532 12.2722C11.5024 11.8811 11.1775 11.5781 10.7714 11.5292L10.5176 11.4998C10.1217 11.4607 9.79682 11.1674 9.74606 10.7861L9.52271 9.31955C9.45164 8.81114 9.85773 8.36139 10.3857 8.35162C10.8933 8.35162 11.2994 7.92142 11.2587 7.43257L10.9643 4.22569C10.9237 3.73683 11.3197 3.30664 11.8374 3.30664H13.7461C14.2029 3.30664 14.5887 3.64884 14.6192 4.08881L15.6344 16.887C15.675 17.3759 15.2689 17.7963 14.7613 17.7963L14.7816 17.8061Z" fill="#2C9A49"/>
<path d="M20.2537 4.96876L21.2385 13.3868C21.3299 14.1299 21.9796 14.697 22.7613 14.697H24.8426C25.6852 14.697 26.3756 15.352 26.3756 16.1733C26.3756 16.9848 25.6953 17.6496 24.8426 17.6496H19.1167C18.3248 17.6496 17.6649 17.063 17.5938 16.3102L16.5786 5.28162C16.4974 4.42124 17.208 3.67818 18.1014 3.67818H18.741C19.5228 3.67818 20.1725 4.24525 20.2639 4.98831L20.2537 4.96876ZM30.5786 17.8061H29.9593C29.1167 17.8061 28.4263 17.151 28.4263 16.3297V12.1451C28.4263 11.3434 27.7563 10.6786 26.9136 10.6688H26.1116C25.2791 10.6492 24.5989 9.99418 24.5989 9.18268V8.93825C24.5989 8.12675 25.2791 7.47169 26.1217 7.46191H26.9035C27.7461 7.45214 28.4263 6.79707 28.4263 5.98557V4.77321C28.4263 3.96172 29.1065 3.29688 29.9593 3.29688H30.5786C31.4212 3.29688 32.1116 3.95194 32.1116 4.77321V16.3199C32.1116 17.1314 31.4314 17.7963 30.5786 17.7963V17.8061Z" fill="#2C9A49"/>
<path d="M20.2537 4.96876L21.2385 13.3868C21.3299 14.1299 21.9796 14.697 22.7613 14.697H24.8426C25.6852 14.697 26.3756 15.352 26.3756 16.1733C26.3756 16.9848 25.6953 17.6496 24.8426 17.6496H19.1167C18.3248 17.6496 17.6649 17.063 17.5938 16.3102L16.5786 5.28162C16.4974 4.42124 17.208 3.67818 18.1014 3.67818H18.741C19.5228 3.67818 20.1725 4.24525 20.2639 4.98831L20.2537 4.96876ZM30.5786 17.8061H29.9593C29.1167 17.8061 28.4263 17.151 28.4263 16.3297V12.1451C28.4263 11.3434 27.7563 10.6786 26.9136 10.6688H26.1116C25.2791 10.6492 24.5989 9.99418 24.5989 9.18268V8.93825C24.5989 8.12675 25.2791 7.47169 26.1217 7.46191H26.9035C27.7461 7.45214 28.4263 6.79707 28.4263 5.98557V4.77321C28.4263 3.96172 29.1065 3.29688 29.9593 3.29688H30.5786C31.4212 3.29688 32.1116 3.95194 32.1116 4.77321V16.3199C32.1116 17.1314 31.4314 17.7963 30.5786 17.7963V17.8061Z" fill="#2C9A49"/>
<path d="M43.6447 17.6398H34.4163C34.0001 17.6398 33.665 17.3172 33.665 16.9163V14.6871H34.731L34.9138 6.60149H33.665V4.3821C33.665 3.98124 34.0001 3.65859 34.4163 3.65859L44.0711 3.63904C44.5077 3.63904 44.8529 3.99101 44.8224 4.41143L44.66 6.58194L43.4315 6.60149L43.1879 14.6871H44.4975L44.3859 16.9456C44.3655 17.327 44.0407 17.63 43.6346 17.63L43.6447 17.6398ZM38.2437 14.6969H38.9645C39.3706 14.6969 39.7056 14.3841 39.7158 13.993L39.9087 7.35433C39.9188 6.94369 39.5838 6.61127 39.1574 6.61127C38.7513 6.61127 38.4163 6.92414 38.4062 7.31522L38.2336 14.6969H38.2437ZM48.4874 17.8158H46.3046C45.8681 17.8158 45.5229 17.4541 45.5635 17.0434L46.6295 3.99101C46.66 3.61948 46.9848 3.32617 47.3706 3.32617H49.5534C49.9899 3.32617 50.3351 3.68792 50.2945 4.09856L49.2285 17.151C49.198 17.5225 48.8732 17.8158 48.4874 17.8158Z" fill="#2C9A49"/>
<path d="M43.6447 17.6398H34.4163C34.0001 17.6398 33.665 17.3172 33.665 16.9163V14.6871H34.731L34.9138 6.60149H33.665V4.3821C33.665 3.98124 34.0001 3.65859 34.4163 3.65859L44.0711 3.63904C44.5077 3.63904 44.8529 3.99101 44.8224 4.41143L44.66 6.58194L43.4315 6.60149L43.1879 14.6871H44.4975L44.3859 16.9456C44.3655 17.327 44.0407 17.63 43.6346 17.63L43.6447 17.6398ZM38.2437 14.6969H38.9645C39.3706 14.6969 39.7056 14.3841 39.7158 13.993L39.9087 7.35433C39.9188 6.94369 39.5838 6.61127 39.1574 6.61127C38.7513 6.61127 38.4163 6.92414 38.4062 7.31522L38.2336 14.6969H38.2437ZM48.4874 17.8158H46.3046C45.8681 17.8158 45.5229 17.4541 45.5635 17.0434L46.6295 3.99101C46.66 3.61948 46.9848 3.32617 47.3706 3.32617H49.5534C49.9899 3.32617 50.3351 3.68792 50.2945 4.09856L49.2285 17.151C49.198 17.5225 48.8732 17.8158 48.4874 17.8158Z" fill="#2C9A49"/>
<path d="M61.0563 10.649C60.8025 12.0374 60.437 13.1813 59.9801 14.0906C59.4928 15.0194 58.9649 15.7527 58.4065 16.3002C57.8075 16.8477 57.2086 17.229 56.5588 17.4636C55.9091 17.6885 55.2898 17.8058 54.6806 17.8058C54.0715 17.8058 53.4725 17.6885 52.9141 17.4636C52.3558 17.2192 51.8685 16.8477 51.5131 16.3002C51.1172 15.7527 50.8634 15.0194 50.7416 14.0906C50.6096 13.1813 50.6705 12.0374 50.9243 10.649C51.1781 9.26068 51.5334 8.11676 52.0004 7.18794C52.4471 6.27867 52.9751 5.54539 53.574 4.99787C54.1324 4.45035 54.7619 4.06905 55.4015 3.8344C56.0512 3.60952 56.6705 3.4922 57.2999 3.4922C57.9294 3.4922 58.4877 3.60952 59.0461 3.8344C59.6045 4.07882 60.0715 4.45035 60.4674 4.99787C60.8329 5.54539 61.0867 6.27867 61.239 7.18794C61.3507 8.11676 61.2999 9.28023 61.0461 10.649H61.0563ZM54.6299 10.3166C54.4065 11.177 54.2542 11.8712 54.2035 12.4187C54.1324 12.9662 54.1223 13.4062 54.1832 13.7386C54.2238 14.071 54.3253 14.3057 54.4776 14.4425C54.5994 14.599 54.7416 14.687 54.9141 14.7261C55.0563 14.7554 55.2187 14.7456 55.4218 14.6772C55.6045 14.6185 55.8075 14.4523 56.0309 14.1883C56.2238 13.9341 56.437 13.543 56.6705 13.0151C56.8837 12.4969 57.1172 11.8125 57.3405 10.9521C57.5639 10.0917 57.6959 9.39756 57.7669 8.85004C57.8177 8.30252 57.8278 7.85278 57.7872 7.53013C57.7263 7.21727 57.6248 6.97284 57.4928 6.82618C57.3507 6.6893 57.2086 6.60131 57.0664 6.5622C56.8938 6.52309 56.7213 6.53287 56.5487 6.59153C56.3456 6.66975 56.1426 6.82618 55.9395 7.09994C55.7263 7.36392 55.5131 7.75501 55.2999 8.27319C55.0766 8.7816 54.8532 9.47577 54.6299 10.3166ZM66.7517 8.33185C67.2796 8.33185 67.6654 8.82071 67.5131 9.31934L67.0766 10.737C66.9751 11.0597 66.6705 11.2845 66.3152 11.2845H66.2339C65.8482 11.2845 65.5131 11.5583 65.4522 11.92L64.5284 17.1703C64.4674 17.5419 64.1324 17.8058 63.7466 17.8058H61.7872C61.3101 17.8058 60.9446 17.405 60.9954 16.9455L62.8837 4.15704C62.9344 3.77573 63.2695 3.48242 63.6756 3.48242H65.7771C66.2441 3.48242 66.6197 3.87351 66.569 4.32325L65.97 7.48125C65.9192 7.93099 66.2949 8.32208 66.7619 8.32208L66.7517 8.33185Z" fill="#2C9A49"/>
<path d="M61.0563 10.649C60.8025 12.0374 60.437 13.1813 59.9801 14.0906C59.4928 15.0194 58.9649 15.7527 58.4065 16.3002C57.8075 16.8477 57.2086 17.229 56.5588 17.4636C55.9091 17.6885 55.2898 17.8058 54.6806 17.8058C54.0715 17.8058 53.4725 17.6885 52.9141 17.4636C52.3558 17.2192 51.8685 16.8477 51.5131 16.3002C51.1172 15.7527 50.8634 15.0194 50.7416 14.0906C50.6096 13.1813 50.6705 12.0374 50.9243 10.649C51.1781 9.26068 51.5334 8.11676 52.0004 7.18794C52.4471 6.27867 52.9751 5.54539 53.574 4.99787C54.1324 4.45035 54.7619 4.06905 55.4015 3.8344C56.0512 3.60952 56.6705 3.4922 57.2999 3.4922C57.9294 3.4922 58.4877 3.60952 59.0461 3.8344C59.6045 4.07882 60.0715 4.45035 60.4674 4.99787C60.8329 5.54539 61.0867 6.27867 61.239 7.18794C61.3507 8.11676 61.2999 9.28023 61.0461 10.649H61.0563ZM54.6299 10.3166C54.4065 11.177 54.2542 11.8712 54.2035 12.4187C54.1324 12.9662 54.1223 13.4062 54.1832 13.7386C54.2238 14.071 54.3253 14.3057 54.4776 14.4425C54.5994 14.599 54.7416 14.687 54.9141 14.7261C55.0563 14.7554 55.2187 14.7456 55.4218 14.6772C55.6045 14.6185 55.8075 14.4523 56.0309 14.1883C56.2238 13.9341 56.437 13.543 56.6705 13.0151C56.8837 12.4969 57.1172 11.8125 57.3405 10.9521C57.5639 10.0917 57.6959 9.39756 57.7669 8.85004C57.8177 8.30252 57.8278 7.85278 57.7872 7.53013C57.7263 7.21727 57.6248 6.97284 57.4928 6.82618C57.3507 6.6893 57.2086 6.60131 57.0664 6.5622C56.8938 6.52309 56.7213 6.53287 56.5487 6.59153C56.3456 6.66975 56.1426 6.82618 55.9395 7.09994C55.7263 7.36392 55.5131 7.75501 55.2999 8.27319C55.0766 8.7816 54.8532 9.47577 54.6299 10.3166ZM66.7517 8.33185C67.2796 8.33185 67.6654 8.82071 67.5131 9.31934L67.0766 10.737C66.9751 11.0597 66.6705 11.2845 66.3152 11.2845H66.2339C65.8482 11.2845 65.5131 11.5583 65.4522 11.92L64.5284 17.1703C64.4674 17.5419 64.1324 17.8058 63.7466 17.8058H61.7872C61.3101 17.8058 60.9446 17.405 60.9954 16.9455L62.8837 4.15704C62.9344 3.77573 63.2695 3.48242 63.6756 3.48242H65.7771C66.2441 3.48242 66.6197 3.87351 66.569 4.32325L65.97 7.48125C65.9192 7.93099 66.2949 8.32208 66.7619 8.32208L66.7517 8.33185Z" fill="#2C9A49"/>
<path d="M3.9489 24.5903C15.3093 24.0721 26.6596 24.8543 38.0098 25.2747C43.5936 25.48 49.1976 25.5974 54.7814 25.4018C57.5733 25.3041 60.355 25.1378 63.1266 24.8739C65.5124 24.6392 68.1824 24.5512 70.4362 23.7202C72.5377 22.938 74.4058 21.4714 75.3093 19.4574C76.3753 17.0717 75.7357 14.7252 74.02 12.8089C72.4261 11.01 69.7459 13.6204 71.3296 15.3999C72.3347 16.534 72.2027 17.8246 71.2078 18.9196C69.9591 20.308 68.1621 20.5915 66.3753 20.8457C61.492 21.5399 56.5073 21.755 51.5834 21.8234C41.4514 21.9701 31.3296 21.2563 21.2078 20.9239C15.4616 20.7284 9.70525 20.6697 3.95906 20.9239C1.52251 21.0315 1.5022 24.7076 3.95906 24.5903H3.9489Z" fill="#C4DEC8"/>
<path d="M3.9489 24.5903C15.3093 24.0721 26.6596 24.8543 38.0098 25.2747C43.5936 25.48 49.1976 25.5974 54.7814 25.4018C57.5733 25.3041 60.355 25.1378 63.1266 24.8739C65.5124 24.6392 68.1824 24.5512 70.4362 23.7202C72.5377 22.938 74.4058 21.4714 75.3093 19.4574C76.3753 17.0717 75.7357 14.7252 74.02 12.8089C72.4261 11.01 69.7459 13.6204 71.3296 15.3999C72.3347 16.534 72.2027 17.8246 71.2078 18.9196C69.9591 20.308 68.1621 20.5915 66.3753 20.8457C61.492 21.5399 56.5073 21.755 51.5834 21.8234C41.4514 21.9701 31.3296 21.2563 21.2078 20.9239C15.4616 20.7284 9.70525 20.6697 3.95906 20.9239C1.52251 21.0315 1.5022 24.7076 3.95906 24.5903H3.9489Z" fill="#C4DEC8"/>
<path d="M75.3195 0.656094C73.2789 0.0499144 71.0759 1.26227 70.3957 3.37412C69.9084 4.90912 70.5784 6.12148 71.2282 7.49027C71.6038 8.28222 71.9693 9.06438 72.3449 9.85633C72.3043 9.76833 74.3043 8.75152 74.4464 8.66352C75.3398 8.17467 76.3957 7.75426 77.0454 6.96231C77.3804 6.55167 77.6444 6.0726 77.7967 5.57397C78.4667 3.47189 77.3601 1.27205 75.3195 0.665871V0.656094ZM75.7053 4.6647C75.4312 5.5153 74.5073 5.9846 73.6241 5.72062C72.7408 5.45664 72.2535 4.56693 72.5277 3.71632C72.8018 2.86571 73.7256 2.39641 74.6089 2.6604C75.4921 2.92438 75.9794 3.81409 75.7053 4.6647Z" fill="#C4DEC8"/>
<path d="M75.3195 0.656094C73.2789 0.0499144 71.0759 1.26227 70.3957 3.37412C69.9084 4.90912 70.5784 6.12148 71.2282 7.49027C71.6038 8.28222 71.9693 9.06438 72.3449 9.85633C72.3043 9.76833 74.3043 8.75152 74.4464 8.66352C75.3398 8.17467 76.3957 7.75426 77.0454 6.96231C77.3804 6.55167 77.6444 6.0726 77.7967 5.57397C78.4667 3.47189 77.3601 1.27205 75.3195 0.665871V0.656094ZM75.7053 4.6647C75.4312 5.5153 74.5073 5.9846 73.6241 5.72062C72.7408 5.45664 72.2535 4.56693 72.5277 3.71632C72.8018 2.86571 73.7256 2.39641 74.6089 2.6604C75.4921 2.92438 75.9794 3.81409 75.7053 4.6647Z" fill="#C4DEC8"/>
</g>
<defs>
<clipPath id="clip0_1187_4323">
<rect width="78" height="25" fill="white" transform="translate(0 0.5)"/>
</clipPath>
</defs>
</svg>
