<svg width="20" height="20" viewBox="0 0 20 20" fill="none" xmlns="http://www.w3.org/2000/svg">
<path d="M2 3.49593C2 2.66975 2.66975 2 3.49594 2H16.5041C17.3302 2 18 2.66975 18 3.49594V16.5041C18 17.3302 17.3302 18 16.5041 18H3.49593C2.66975 18 2 17.3302 2 16.5041V3.49593Z" stroke="white" stroke-width="1.2" stroke-linejoin="round"/>
<path d="M10.0003 14.1663C9.39886 13.6677 8.84136 13.1209 8.33365 12.5319C7.57175 11.6474 6.66699 10.3301 6.66699 9.07474C6.66666 8.43364 6.862 7.80686 7.22827 7.27372C7.59455 6.74057 8.11531 6.32503 8.72464 6.07968C9.33397 5.83433 10.0045 5.7702 10.6513 5.8954C11.2982 6.02061 11.8923 6.32953 12.3584 6.78306C12.6688 7.0834 12.9148 7.44059 13.0822 7.83395C13.2496 8.22732 13.335 8.64905 13.3336 9.07474C13.3336 10.3301 12.4289 11.6474 11.667 12.5319C11.1593 13.1209 10.6018 13.6677 10.0003 14.1663ZM10.0003 7.68612C9.62144 7.68612 9.25808 7.83242 8.99017 8.09284C8.72226 8.35326 8.57175 8.70646 8.57175 9.07474C8.57175 9.44303 8.72226 9.79623 8.99017 10.0566C9.25808 10.3171 9.62144 10.4634 10.0003 10.4634C10.3792 10.4634 10.7426 10.3171 11.0105 10.0566C11.2784 9.79623 11.4289 9.44303 11.4289 9.07474C11.4289 8.70646 11.2784 8.35326 11.0105 8.09284C10.7426 7.83242 10.3792 7.68612 10.0003 7.68612Z" stroke="white"/>
</svg>
