<svg width="12" height="16" viewBox="0 0 12 16" fill="white" xmlns="http://www.w3.org/2000/svg">
<path d="M6.00033 15.5C4.94778 14.6022 3.97215 13.6179 3.08366 12.5575C1.75033 10.965 0.166993 8.59333 0.166993 6.33333C0.166415 5.17913 0.50825 4.0507 1.14924 3.09085C1.79022 2.131 2.70155 1.38288 3.76788 0.94116C4.83421 0.499443 6.00762 0.383987 7.13959 0.609405C8.27156 0.834823 9.31122 1.39098 10.127 2.2075C10.6701 2.74821 11.1006 3.39128 11.3936 4.09947C11.6865 4.80767 11.8361 5.56694 11.8337 6.33333C11.8337 8.59333 10.2503 10.965 8.91699 12.5575C8.0285 13.6179 7.05287 14.6022 6.00033 15.5ZM6.00033 3.83333C5.33729 3.83333 4.7014 4.09672 4.23256 4.56556C3.76372 5.0344 3.50033 5.67029 3.50033 6.33333C3.50033 6.99637 3.76372 7.63226 4.23256 8.1011C4.7014 8.56994 5.33729 8.83333 6.00033 8.83333C6.66337 8.83333 7.29925 8.56994 7.76809 8.1011C8.23693 7.63226 8.50033 6.99637 8.50033 6.33333C8.50033 5.67029 8.23693 5.0344 7.76809 4.56556C7.29925 4.09672 6.66337 3.83333 6.00033 3.83333Z" fill="white"/>
</svg>
