<svg width="20" height="20" viewBox="0 0 20 20" fill="none" xmlns="http://www.w3.org/2000/svg">
<path d="M10.0003 17.501C8.94778 16.6032 7.97215 15.6189 7.08366 14.5585C5.75033 12.966 4.16699 10.5943 4.16699 8.33431C4.16641 7.18011 4.50825 6.05168 5.14924 5.09183C5.79022 4.13198 6.70155 3.38385 7.76788 2.94214C8.83421 2.50042 10.0076 2.38496 11.1396 2.61038C12.2716 2.8358 13.3112 3.39196 14.127 4.20847C14.6701 4.74919 15.1006 5.39225 15.3936 6.10045C15.6865 6.80865 15.8361 7.56791 15.8337 8.33431C15.8337 10.5943 14.2503 12.966 12.917 14.5585C12.0285 15.6189 11.0529 16.6032 10.0003 17.501ZM10.0003 5.83431C9.33729 5.83431 8.7014 6.0977 8.23256 6.56654C7.76372 7.03538 7.50033 7.67126 7.50033 8.33431C7.50033 8.99735 7.76372 9.63323 8.23256 10.1021C8.7014 10.5709 9.33729 10.8343 10.0003 10.8343C10.6634 10.8343 11.2993 10.5709 11.7681 10.1021C12.2369 9.63323 12.5003 8.99735 12.5003 8.33431C12.5003 7.67126 12.2369 7.03538 11.7681 6.56654C11.2993 6.0977 10.6634 5.83431 10.0003 5.83431Z" fill="#A5A5A5"/>
</svg>
