<svg width="78" height="33" viewBox="0 0 78 33" fill="none" xmlns="http://www.w3.org/2000/svg">
<rect width="78" height="25" rx="10" fill="#21A345"/>
<path d="M10.7369 12.2612L13.3173 14.5004L17.6842 10.7109" stroke="#C9EFD1" stroke-width="1.2" stroke-linecap="round"/>
<circle cx="14" cy="12.5" r="6" stroke="#C9EFD1" stroke-width="1.2"/>
<path d="M29.5137 17.1367C31.6533 17.1367 33.1436 15.7217 33.1367 13.7461C33.1436 11.8389 31.7764 10.4717 29.9375 10.4648C29.124 10.4717 28.4062 10.7861 28.0234 11.2168H27.9277L28.2285 8.5918H32.6172V7.10156H26.7656L26.1641 12.707H27.8184C28.126 12.126 28.6865 11.8525 29.459 11.8594C30.6006 11.8662 31.4209 12.666 31.4141 13.8008C31.4209 14.8945 30.6211 15.6943 29.5137 15.7012C28.5771 15.6943 27.8184 15.1201 27.7637 14.3203H26.0273C26.082 15.9541 27.5381 17.1367 29.5137 17.1367Z" fill="#C9EFD1"/>
<path d="M39 7V18" stroke="#7ADA90"/>
<path d="M48.9062 7.10156H47.6621L45.2012 8.74219V9.98633L47.6074 8.38672H47.6621V17H48.9062V7.10156ZM51.5586 17H52.7344V14.2314L53.5205 13.5L56.2754 17H57.7656L54.4023 12.7549L57.5332 9.57617H56.084L52.8711 12.8574H52.7344V7.10156H51.5586V17ZM58.791 17H59.9668V12.3652C59.9668 11.2852 60.7461 10.5332 61.6348 10.5332C62.4893 10.5332 63.0908 11.0938 63.084 11.9277V17H64.2734V12.1738C64.2803 11.2305 64.8682 10.5332 65.9004 10.5332C66.7139 10.5332 67.3975 10.957 67.4043 12.0508V17H68.5801V12.0371C68.5801 10.2871 67.6299 9.48047 66.3105 9.48047C65.2441 9.48047 64.458 9.97266 64.082 10.7383H64C63.6514 9.94531 62.9883 9.48047 62.0176 9.48047C61.0469 9.48047 60.3291 9.94531 60.0215 10.7383H59.9258V9.57617H58.791V17Z" fill="#7ADA90"/>
<path d="M37.5858 31.5858L31 25H47L40.4142 31.5858C39.6332 32.3668 38.3668 32.3668 37.5858 31.5858Z" fill="#21A345"/>
</svg>
