<svg width="28" height="28" viewBox="0 0 28 28" fill="none" xmlns="http://www.w3.org/2000/svg">
  <path d="M25.4297 23.5703L20.9781 19.1188C22.4158 17.2839 23.1941 15.0185 23.1875 12.6875C23.1875 10.6108 22.5717 8.58073 21.4179 6.85402C20.2642 5.1273 18.6243 3.78149 16.7057 2.98677C14.7871 2.19205 12.6759 1.98411 10.6391 2.38926C8.60226 2.7944 6.73133 3.79443 5.26288 5.26288C3.79443 6.73133 2.7944 8.60226 2.38926 10.6391C1.98411 12.6759 2.19205 14.7871 2.98677 16.7057C3.78149 18.6243 5.1273 20.2642 6.85402 21.4179C8.58073 22.5717 10.6108 23.1875 12.6875 23.1875C15.0185 23.1941 17.2839 22.4158 19.1188 20.9781L23.5703 25.4297C23.818 25.6742 24.152 25.8112 24.5 25.8112C24.848 25.8112 25.182 25.6742 25.4297 25.4297C25.5521 25.3078 25.6491 25.1629 25.7154 25.0033C25.7816 24.8438 25.8157 24.6727 25.8157 24.5C25.8157 24.3273 25.7816 24.1562 25.7154 23.9967C25.6491 23.8371 25.5521 23.6923 25.4297 23.5703V23.5703ZM4.8125 12.6875C4.8125 11.13 5.27437 9.60743 6.13968 8.31239C7.005 7.01735 8.2349 6.00799 9.67387 5.41195C11.1128 4.81591 12.6962 4.65996 14.2238 4.96382C15.7514 5.26768 17.1546 6.0177 18.256 7.11904C19.3573 8.22038 20.1073 9.62357 20.4112 11.1512C20.715 12.6788 20.5591 14.2622 19.9631 15.7011C19.367 17.1401 18.3577 18.37 17.0626 19.2353C15.7676 20.1006 14.245 20.5625 12.6875 20.5625C10.5998 20.5596 8.59846 19.729 7.12223 18.2528C5.64601 16.7766 4.8154 14.7752 4.8125 12.6875Z" stroke="none" stroke-width="2" stroke-linecap="round" stroke-linejoin="round"/>
</svg>
