<svg width="32" height="32" viewBox="0 0 32 32" fill="none" xmlns="http://www.w3.org/2000/svg">
<path d="M12.8473 5.83391L13.5947 5.89619V5.89619L12.8473 5.83391ZM12.6961 7.64758L12.9762 8.34334L13.4051 8.17068L13.4435 7.70986L12.6961 7.64758ZM10.4346 8.97L10.1149 9.64842L10.5381 9.8479L10.9033 9.55552L10.4346 8.97ZM8.77241 8.18653L8.45264 8.86494L8.45264 8.86495L8.77241 8.18653ZM6.18765 8.99564L5.53813 8.62064H5.53813L6.18765 8.99564ZM5.02792 11.0044L5.67743 11.3794H5.67743L5.02792 11.0044ZM5.61958 13.6474L6.04723 13.0312H6.04723L5.61958 13.6474ZM7.14683 14.7074L7.88919 14.8142L7.95516 14.3555L7.57448 14.0913L7.14683 14.7074ZM7.14683 17.2926L7.57448 17.9087L7.95516 17.6445L7.88919 17.1858L7.14683 17.2926ZM5.61958 18.3526L5.19194 17.7365H5.19194L5.61958 18.3526ZM5.02792 20.9956L5.67743 20.6206L5.02792 20.9956ZM6.18765 23.0044L5.53813 23.3794L6.18765 23.0044ZM8.77241 23.8135L8.45264 23.1351H8.45264L8.77241 23.8135ZM10.4346 23.03L10.9033 22.4445L10.5381 22.1521L10.1149 22.3516L10.4346 23.03ZM12.6961 24.3524L13.4435 24.2901L13.4051 23.8293L12.9762 23.6567L12.6961 24.3524ZM19.1529 26.1661L18.4055 26.1038L19.1529 26.1661ZM19.3003 24.397L19.0298 23.6975L18.5919 23.8669L18.5529 24.3347L19.3003 24.397ZM21.6341 23.0623L21.9539 22.3839L21.5334 22.1857L21.1688 22.4741L21.6341 23.0623ZM23.2278 23.8135L22.908 24.4919L23.2278 23.8135ZM25.8125 23.0044L25.163 22.6294L25.8125 23.0044ZM26.9723 20.9956L27.6218 21.3706L26.9723 20.9956ZM26.3806 18.3526L26.8082 17.7365V17.7365L26.3806 18.3526ZM24.9524 17.3614L24.2109 17.2488L24.1408 17.711L24.5248 17.9775L24.9524 17.3614ZM24.9524 14.6386L24.5248 14.0225L24.1408 14.289L24.2109 14.7512L24.9524 14.6386ZM26.3806 13.6474L26.8082 14.2635V14.2635L26.3806 13.6474ZM26.9723 11.0044L27.6218 10.6294L26.9723 11.0044ZM25.8125 8.99564L25.163 9.37064L25.8125 8.99564ZM23.2278 8.18653L23.5475 8.86495L23.2278 8.18653ZM21.6341 8.93767L21.1688 9.52586L21.5334 9.81429L21.9539 9.61609L21.6341 8.93767ZM19.3003 7.60301L18.5529 7.66529L18.5919 8.13315L19.0298 8.30251L19.3003 7.60301ZM19.1529 5.83391L19.9003 5.77162L19.1529 5.83391ZM13.5947 5.89619C13.6487 5.24833 14.1902 4.75 14.8404 4.75V3.25C13.4101 3.25 12.2186 4.34632 12.0999 5.77163L13.5947 5.89619ZM13.4435 7.70986L13.5947 5.89619L12.0999 5.77163L11.9487 7.5853L13.4435 7.70986ZM10.9033 9.55552C11.527 9.05627 12.2244 8.64592 12.9762 8.34334L12.4161 6.95182C11.5266 7.30984 10.7024 7.79499 9.96595 8.38449L10.9033 9.55552ZM8.45264 8.86495L10.1149 9.64842L10.7544 8.29159L9.09217 7.50811L8.45264 8.86495ZM6.83717 9.37064C7.16222 8.80763 7.86458 8.58777 8.45264 8.86494L9.09217 7.50811C7.79844 6.89832 6.25325 7.38201 5.53813 8.62064L6.83717 9.37064ZM5.67743 11.3794L6.83717 9.37064L5.53813 8.62064L4.3784 10.6294L5.67743 11.3794ZM6.04723 13.0312C5.51315 12.6606 5.35238 11.9424 5.67743 11.3794L4.3784 10.6294C3.66327 11.868 4.01698 13.448 5.19194 14.2635L6.04723 13.0312ZM7.57448 14.0913L6.04723 13.0312L5.19194 14.2635L6.71919 15.3235L7.57448 14.0913ZM7.8047 16C7.8047 15.5969 7.83355 15.201 7.88919 14.8142L6.40447 14.6006C6.33869 15.058 6.3047 15.5253 6.3047 16H7.8047ZM7.88919 17.1858C7.83355 16.799 7.8047 16.4031 7.8047 16H6.3047C6.3047 16.4747 6.33869 16.942 6.40447 17.3994L7.88919 17.1858ZM6.04723 18.9688L7.57448 17.9087L6.71919 16.6765L5.19194 17.7365L6.04723 18.9688ZM5.67743 20.6206C5.35238 20.0576 5.51315 19.3394 6.04723 18.9688L5.19194 17.7365C4.01698 18.552 3.66327 20.132 4.3784 21.3706L5.67743 20.6206ZM6.83717 22.6294L5.67743 20.6206L4.3784 21.3706L5.53813 23.3794L6.83717 22.6294ZM8.45264 23.1351C7.86458 23.4122 7.16222 23.1924 6.83717 22.6294L5.53813 23.3794C6.25325 24.618 7.79844 25.1017 9.09217 24.4919L8.45264 23.1351ZM10.1149 22.3516L8.45264 23.1351L9.09217 24.4919L10.7544 23.7084L10.1149 22.3516ZM12.9762 23.6567C12.2244 23.3541 11.527 22.9437 10.9033 22.4445L9.96595 23.6155C10.7024 24.205 11.5266 24.6902 12.4161 25.0482L12.9762 23.6567ZM13.5947 26.1038L13.4435 24.2901L11.9487 24.4147L12.0999 26.2284L13.5947 26.1038ZM14.8404 27.25C14.1902 27.25 13.6487 26.7517 13.5947 26.1038L12.0999 26.2284C12.2186 27.6537 13.4101 28.75 14.8404 28.75V27.25ZM17.1598 27.25H14.8404V28.75H17.1598V27.25ZM18.4055 26.1038C18.3515 26.7517 17.8099 27.25 17.1598 27.25V28.75C18.5901 28.75 19.7815 27.6537 19.9003 26.2284L18.4055 26.1038ZM18.5529 24.3347L18.4055 26.1038L19.9003 26.2284L20.0477 24.4593L18.5529 24.3347ZM21.1688 22.4741C20.526 22.9827 19.8061 23.3972 19.0298 23.6975L19.5709 25.0965C20.4895 24.7412 21.3404 24.251 22.0995 23.6505L21.1688 22.4741ZM23.5475 23.1351L21.9539 22.3839L21.3144 23.7407L22.908 24.4919L23.5475 23.1351ZM25.163 22.6294C24.838 23.1924 24.1356 23.4122 23.5475 23.1351L22.908 24.4919C24.2017 25.1017 25.7469 24.618 26.462 23.3794L25.163 22.6294ZM26.3227 20.6206L25.163 22.6294L26.462 23.3794L27.6218 21.3706L26.3227 20.6206ZM25.9529 18.9688C26.487 19.3394 26.6478 20.0576 26.3227 20.6206L27.6218 21.3706C28.3369 20.132 27.9832 18.552 26.8082 17.7365L25.9529 18.9688ZM24.5248 17.9775L25.9529 18.9688L26.8082 17.7365L25.3801 16.7452L24.5248 17.9775ZM24.3047 16C24.3047 16.425 24.2726 16.842 24.2109 17.2488L25.6939 17.4739C25.7669 16.9928 25.8047 16.5006 25.8047 16H24.3047ZM24.2109 14.7512C24.2726 15.158 24.3047 15.575 24.3047 16H25.8047C25.8047 15.4994 25.7669 15.0072 25.6939 14.5261L24.2109 14.7512ZM25.9529 13.0312L24.5248 14.0225L25.3801 15.2548L26.8082 14.2635L25.9529 13.0312ZM26.3227 11.3794C26.6478 11.9424 26.487 12.6606 25.9529 13.0312L26.8082 14.2635C27.9832 13.448 28.3369 11.868 27.6218 10.6294L26.3227 11.3794ZM25.163 9.37064L26.3227 11.3794L27.6218 10.6294L26.462 8.62064L25.163 9.37064ZM23.5475 8.86495C24.1356 8.58777 24.838 8.80763 25.163 9.37064L26.462 8.62064C25.7469 7.38201 24.2017 6.89832 22.908 7.50811L23.5475 8.86495ZM21.9539 9.61609L23.5475 8.86495L22.908 7.50811L21.3144 8.25925L21.9539 9.61609ZM19.0298 8.30251C19.8061 8.60277 20.526 9.01733 21.1688 9.52586L22.0995 8.34947C21.3404 7.749 20.4895 7.25881 19.5709 6.90351L19.0298 8.30251ZM18.4055 5.89619L18.5529 7.66529L20.0477 7.54072L19.9003 5.77162L18.4055 5.89619ZM17.1598 4.75C17.8099 4.75 18.3515 5.24833 18.4055 5.89619L19.9003 5.77162C19.7815 4.34632 18.5901 3.25 17.1598 3.25V4.75ZM14.8404 4.75H17.1598V3.25H14.8404V4.75Z" fill="#464646"/>
<circle cx="16.0547" cy="16" r="4" stroke="#464646" stroke-width="1.5"/>
</svg>
