<svg width="20" height="21" viewBox="0 0 20 21" fill="none" xmlns="http://www.w3.org/2000/svg">
<path d="M9.99972 7.00766V10.4997L12.6188 13.1188M17.8569 10.4997C17.8569 11.5315 17.6536 12.5532 17.2588 13.5065C16.8639 14.4598 16.2852 15.326 15.5556 16.0556C14.826 16.7852 13.9598 17.3639 13.0065 17.7588C12.0532 18.1536 11.0315 18.3569 9.99972 18.3569C8.96791 18.3569 7.9462 18.1536 6.99292 17.7588C6.03965 17.3639 5.17349 16.7852 4.44388 16.0556C3.71428 15.326 3.13553 14.4598 2.74067 13.5065C2.34581 12.5532 2.14258 11.5315 2.14258 10.4997C2.14258 8.41588 2.97038 6.41738 4.44388 4.94388C5.91738 3.47038 7.91588 2.64258 9.99972 2.64258C12.0836 2.64258 14.0821 3.47038 15.5556 4.94388C17.0291 6.41738 17.8569 8.41588 17.8569 10.4997Z" stroke="#555555" stroke-width="1.2" stroke-linecap="round" stroke-linejoin="round"/>
</svg>
