<svg width="90" height="90" viewBox="0 0 90 90" fill="none" xmlns="http://www.w3.org/2000/svg">
<circle cx="45" cy="45" r="45" fill="#21A345"/>
<path d="M35.625 28C37.1168 28 38.5476 28.597 39.6025 29.6597C40.6574 30.7224 41.25 32.1638 41.25 33.6667V56.3333C41.25 57.8362 40.6574 59.2776 39.6025 60.3403C38.5476 61.403 37.1168 62 35.625 62C34.1332 62 32.7024 61.403 31.6475 60.3403C30.5926 59.2776 30 57.8362 30 56.3333V33.6667C30 32.1638 30.5926 30.7224 31.6475 29.6597C32.7024 28.597 34.1332 28 35.625 28ZM54.375 28C55.8668 28 57.2976 28.597 58.3525 29.6597C59.4074 30.7224 60 32.1638 60 33.6667V56.3333C60 57.8362 59.4074 59.2776 58.3525 60.3403C57.2976 61.403 55.8668 62 54.375 62C52.8832 62 51.4524 61.403 50.3975 60.3403C49.3426 59.2776 48.75 57.8362 48.75 56.3333V33.6667C48.75 32.1638 49.3426 30.7224 50.3975 29.6597C51.4524 28.597 52.8832 28 54.375 28Z" fill="white"/>
</svg>
